<svg id="eMD4j3UFn5x1" xmlns="http://www.w3.org/2000/svg" xmlns:xlink="http://www.w3.org/1999/xlink" viewBox="0 0 1200 1200" shape-rendering="geometricPrecision" text-rendering="geometricPrecision" project-id="7f5050504d504fd186ee5c7ea90d2aef" export-id="fe9229de90bc43cbb346f46dadfb3a16" cached="false"><g transform="matrix(1.764645 0 0 1.764645-670.558078-114.701917)"><path d="M582.691406,326.428617q57.5625-33.489886,57.5625-33.509886t.003069,92.850877l54.916428,31.905922-48.74299,28.694532-63.739007-.014595v-119.92685Z" transform="translate(0 0.000002)" fill="#fff" stroke-width="2.88"/><path d="M582.691406,471.5625q.000001,14.649418.000001,14.629418c0-.02,137.319666,79.957575,137.319666,79.917575q0-.04,137.297521-79.911186v-159.769688l-57.5625-33.509886-.28125,92.850877L653.535156,471.5625h-70.843751" transform="translate(.000002 0)" fill="#fff" stroke-width="2.88"/><path d="M574.09812,220.62404l74.1675-43.18666v-112.43737h147.90625v112.50086l75.70536,43.91011l103.04854-64.68441l78.625,125.27735-98.76995,62.00345-.00182,124.85628l96.60948,62.99492-80.82661,123.87722-100.92842-65.83594-73.46158,42.73274v112.39087h-147.90625v-112.38233l-79.60927-46.31097L465.0629,651.32108L386.46471,526.04722l103.19154-64.69007v-119.25008L388.625,276.21096l80.82157-123.88672l104.65155,68.2998Zm-39.48484,75.30513v218.25755L722.4509,623.51173L909.82422,514.1245v-218.07544L722.16402,186.73829L534.61328,295.92917Z" fill="#fff" fill-rule="evenodd" stroke-width="2.88"/></g></svg>
