<svg id="erMxW3ZaNLA1" xmlns="http://www.w3.org/2000/svg" xmlns:xlink="http://www.w3.org/1999/xlink" viewBox="0 0 1200 1200" shape-rendering="geometricPrecision" text-rendering="geometricPrecision" project-id="2d6f3a25989643c1b3f999fb2ff94c73" export-id="441a6124e19d4e5a93c0f7b26ba46461" cached="false"><path d="M472.800781,169.121097L397.375,284.773441L491.691406,346.282v111.276533l-96.356263,60.481234l73.411335,116.952975q96.583003-60.679204,96.723003-60.739204t74.288331,43.244103v105.01537h138.070313v-105.01537l68.578956-39.907318l94.218795,61.464801l75.44918-115.621669-90.154821-58.795737-.011754-187.692448L706.720702,393.393792v124.707767l145.185547-77.743494v47.912992q-145.1875,84.678159-145.185547,84.678159t-145.185547-84.590815v-168.950047q145.189453-84.470857,145.1875-84.470857t83.469808,48.557283q75.297659-39.943073,75.317659-39.943073t-87.681998-50.980015v-104.966226l-138.070312-.000001v104.966226l-69.172595,40.285613-97.784436-63.736207Z" transform="matrix(1.890038 0 0 1.890038-733.809454-165.577352)" fill="#fff" stroke-width="2.88"/></svg>
